 http://www.imdb.com/title/tt1659343/


[b]Plot:John looks to take down Luc Deveraux after a home invasion claims his wife and daughter. The fight pits John against Andrew Scott and an army of genetically enhanced warriors; meanwhile, he must contend with a UniSol in relentless pursuit.
 


Director: 
John Hyams

 Writers: 
John Hyams , Doug Magnuson 

Stars:
 Jean-Claude Van Damme, Dolph Lundgren and Scott Adkins 

Genres:
 Action | Sci-Fi | Thriller [/b]




Format                                   : AVI
Format/Info                              : Audio Video Interleave
Format profile                           : OpenDML
File size                                : 695 MiB
Duration                                 : 1h 53mn
Overall bit rate mode                    : Variable
Overall bit rate                         : 854 Kbps
Writing application                      : AVI-Mux GUI 1.16.11, Dec 15 2004  14:51:34

Video
ID                                       : 0
Format                                   : MPEG-4 Visual
Format profile                           : Advanced Simple@L5
Format settings, BVOP                    : 2
Format settings, QPel                    : No
Format settings, GMC                     : No warppoints
Format settings, Matrix                  : Default (H.263)
Codec ID                                 : XVID
Codec ID/Hint                            : XviD
Duration                                 : 1h 53mn
Bit rate                                 : 732 Kbps
Width                                    : 640 pixels
Height                                   : 272 pixels
Display aspect ratio                     : 2.35:1
Frame rate                               : 23.976 fps
Color space                              : YUV
Chroma subsampling                       : 4:2:0
Bit depth                                : 8 bits
Scan type                                : Progressive
Compression mode                         : Lossy
Bits/(Pixel*Frame)                       : 0.175
Stream size                              : 595 MiB (86%)
Writing library                          : XviD 1.2.1 (UTC 2008-12-04)

Audio
ID                                       : 1
Format                                   : MPEG Audio
Format version                           : Version 1
Format profile                           : Layer 3
Mode                                     : Joint stereo
Mode extension                           : MS Stereo
Codec ID                                 : 55
Codec ID/Hint                            : MP3
Duration                                 : 1h 53mn
Bit rate mode                            : Variable
Bit rate                                 : 115 Kbps
Channel(s)                               : 2 channels
Sampling rate                            : 44.1 KHz
Compression mode                         : Lossy
Stream size                              : 92.5 MiB (13%)
Alignment                                : Aligned on interleaves
Interleave, duration                     : 26 ms (0.63 video frame)
Interleave, preload duration             : 183 ms
Title                                    : English - 3LT0N
Writing library                          : LAME3.93a
Encoding settings                        : -m j -V 4 -q 2 -lowpass 16 --abr 115


 
http://www.shotpix.com/images/81983768049472011900.png 
http://www.shotpix.com/images/61234268547817989986.png 
http://www.shotpix.com/images/55633741734945633171.png 
http://www.shotpix.com/images/31892810953597982011.png